<?xml version="1.0" encoding="utf-8"?>
<!-- Generator: Adobe Illustrator 22.1.0, SVG Export Plug-In . SVG Version: 6.00 Build 0)  -->
<svg version="1.1" id="Layer_1" xmlns="http://www.w3.org/2000/svg" xmlns:xlink="http://www.w3.org/1999/xlink" x="0px" y="0px"
	 viewBox="0 0 612 792" style="enable-background:new 0 0 612 792;" xml:space="preserve">
<style type="text/css">
	.st0{fill-rule:evenodd;clip-rule:evenodd;fill:#F5F5F5;}
	.st1{fill-rule:evenodd;clip-rule:evenodd;}
</style>
<g>
	<polygon class="st0" points="1047.9,-198 -437,-198 -437,991.4 1047.9,991.4 1047.9,-198 	"/>
	<path class="st1" d="M542.6,146.2H69.4v482.9h473.2V146.2L542.6,146.2z M436.4,236.4H175.6V539h260.8V236.4L436.4,236.4z
		 M378.4,294.5H233.5v70h144.9V294.5L378.4,294.5z M378.4,410.8H233.6v70h144.9V410.8L378.4,410.8z M378.4,294.5H233.5v70h144.9
		V294.5L378.4,294.5z M378.4,410.8H233.6v70h144.9V410.8L378.4,410.8z M378.4,294.5H233.5v70h144.9V294.5L378.4,294.5z M378.4,410.8
		H233.6v70h144.9V410.8L378.4,410.8z"/>
</g>
</svg>
