<?xml version="1.0" encoding="UTF-8"?>
<svg width="474px" height="484px" viewBox="0 0 474 484" version="1.1" xmlns="http://www.w3.org/2000/svg" xmlns:xlink="http://www.w3.org/1999/xlink">
    <!-- Generator: Sketch 52.5 (67469) - http://www.bohemiancoding.com/sketch -->
    <title>block</title>
    <desc>Created with Sketch.</desc>
    <g id="Page-1" stroke="none" stroke-width="1" fill="none" fill-rule="evenodd">
        <g id="block" fill="#000000" fill-rule="nonzero">
            <path d="M473.6,0.2 L0.4,0.2 L0.4,483.1 L473.6,483.1 L473.6,0.2 Z M367.4,90.4 L367.4,393 L106.6,393 L106.6,90.4 L367.4,90.4 Z M309.4,148.5 L164.5,148.5 L164.5,218.5 L309.4,218.5 L309.4,148.5 Z M309.4,264.8 L309.5,264.8 L309.5,334.8 L164.6,334.8 L164.6,264.8 L309.4,264.8 Z M309.4,148.5 L309.4,218.5 L164.5,218.5 L164.5,148.5 L309.4,148.5 Z M309.4,148.5 L309.4,218.5 L164.5,218.5 L164.5,148.5 L309.4,148.5 Z" id="Shape"></path>
        </g>
    </g>
</svg>